<svg id="Layer_1" data-name="Layer 1" xmlns="http://www.w3.org/2000/svg" viewBox="0 0 512 512"><title>tools-flat</title><path d="M256,510.18C116.1,510.18,2.28,396.16,2.28,256S116.1,1.82,256,1.82,509.72,115.84,509.72,256,395.9,510.18,256,510.18Z" fill="#216e39" stroke="#131313" stroke-miterlimit="10" stroke-width="4.56"/><ellipse cx="256" cy="256" rx="217.72" ry="218.11" fill="#131313"/><path d="M361.57,184.58l-19.16-19.22a6.82,6.82,0,0,0-9.65,0,6.68,6.68,0,0,0-1.8,5.7,7,7,0,0,0-4.08,1.47l-.13-.15-49.67,49.75A19.1,19.1,0,0,1,274,234.75l5.23,5.31.12-.13.51.51-11,11-36-36a43,43,0,0,0-52.68-53.2L204.6,186.6l-6.41,23.92-23.9,6.4-24.35-24.42a43.07,43.07,0,0,0,54.93,52.27l.12.12,35.22,35.26-33.5,33.57-1.83-1.79-9.38,7.58-15.87,25,4,4.06,25-15.89,7.61-9.42-1.81-1.8L248,288l57.28,57.39A20.34,20.34,0,0,0,334,316.57L276.69,259.2l10.74-10.78,4.7,4.79A19,19,0,0,1,304.89,250l49-49,.7-.68-.15-.15a6.8,6.8,0,0,0,1.45-4.07,6.56,6.56,0,0,0,5.68-1.83A6.78,6.78,0,0,0,361.57,184.58Zm-40.19,141.8a7.78,7.78,0,1,1-7.74,7.78A7.74,7.74,0,0,1,321.38,326.39ZM293.57,224.83l-3.22-3.21,36.81-36.87,3.2,3.22Zm12,12-3.21-3.2,36.8-36.88,3.2,3.21Z" fill="#e0dfd7"/></svg>
